<svg xmlns="http://www.w3.org/2000/svg" viewBox="0 0 400 500" width="400" height="500" role="img" aria-label="Charlotte de frutos rojos">
  <defs>
    <radialGradient id="rffondo" cx="50%" cy="45%" r="65%">
      <stop offset="0%" stop-color="#FBF0E4"/>
      <stop offset="100%" stop-color="#F0D9D9"/>
    </radialGradient>
    <linearGradient id="rfbiz" x1="0" y1="0" x2="0" y2="1">
      <stop offset="0%" stop-color="#FBF0E4"/>
      <stop offset="100%" stop-color="#EFD9C4"/>
    </linearGradient>
    <linearGradient id="rfmousse" x1="0" y1="0" x2="0" y2="1">
      <stop offset="0%" stop-color="#9A2A4E"/>
      <stop offset="100%" stop-color="#6E1838"/>
    </linearGradient>
  </defs>

  <rect width="400" height="500" fill="url(#rffondo)"/>
  <ellipse cx="200" cy="448" rx="165" ry="24" fill="#D9B8B8" opacity="0.6"/>

  <g fill="url(#rfbiz)" stroke="#D9B98E" stroke-width="1.2">
    <rect x="80" y="250" width="30" height="180" rx="14"/>
    <rect x="115" y="248" width="30" height="182" rx="14"/>
    <rect x="150" y="246" width="30" height="184" rx="14"/>
    <rect x="220" y="246" width="30" height="184" rx="14"/>
    <rect x="255" y="248" width="30" height="182" rx="14"/>
    <rect x="290" y="250" width="30" height="180" rx="14"/>
  </g>
  <g stroke="#C99E6E" stroke-width="0.8" opacity="0.6">
    <line x1="80" y1="290" x2="110" y2="290"/><line x1="80" y1="330" x2="110" y2="330"/><line x1="80" y1="370" x2="110" y2="370"/>
    <line x1="115" y1="290" x2="145" y2="290"/><line x1="115" y1="330" x2="145" y2="330"/><line x1="115" y1="370" x2="145" y2="370"/>
    <line x1="150" y1="290" x2="180" y2="290"/><line x1="150" y1="330" x2="180" y2="330"/><line x1="150" y1="370" x2="180" y2="370"/>
    <line x1="220" y1="290" x2="250" y2="290"/><line x1="220" y1="330" x2="250" y2="330"/><line x1="220" y1="370" x2="250" y2="370"/>
    <line x1="255" y1="290" x2="285" y2="290"/><line x1="255" y1="330" x2="285" y2="330"/><line x1="255" y1="370" x2="285" y2="370"/>
    <line x1="290" y1="290" x2="320" y2="290"/><line x1="290" y1="330" x2="320" y2="330"/><line x1="290" y1="370" x2="320" y2="370"/>
  </g>

  <rect x="78" y="318" width="244" height="22" fill="#B5285A" opacity="0.9"/>
  <path d="M322 329 Q345 318 358 332 Q348 340 330 336 Z" fill="#9B1F4B"/>

  <ellipse cx="200" cy="250" rx="125" ry="40" fill="url(#rfmousse)"/>
  <path d="M80 250 Q200 200 320 250 L320 290 Q200 300 80 290 Z" fill="url(#rfmousse)"/>

  <!-- Arándanos -->
  <g fill="#3A4FA0">
    <circle cx="140" cy="230" r="9"/>
    <circle cx="158" cy="222" r="9"/>
    <circle cx="175" cy="232" r="9"/>
    <circle cx="250" cy="228" r="9"/>
    <circle cx="268" cy="220" r="9"/>
    <circle cx="285" cy="230" r="9"/>
  </g>
  <g fill="#fff" opacity="0.35">
    <circle cx="137" cy="227" r="2.5"/>
    <circle cx="155" cy="219" r="2.5"/>
    <circle cx="172" cy="229" r="2.5"/>
    <circle cx="247" cy="225" r="2.5"/>
    <circle cx="265" cy="217" r="2.5"/>
    <circle cx="282" cy="227" r="2.5"/>
  </g>

  <!-- Moras -->
  <g>
    <g transform="translate(195 225)">
      <circle cx="0" cy="0" r="4" fill="#3A1F4A"/>
      <circle cx="-5" cy="-3" r="4" fill="#4A2A5A"/>
      <circle cx="5" cy="-3" r="4" fill="#4A2A5A"/>
      <circle cx="-5" cy="3" r="4" fill="#3A1F4A"/>
      <circle cx="5" cy="3" r="4" fill="#3A1F4A"/>
      <circle cx="0" cy="-5" r="4" fill="#4A2A5A"/>
      <circle cx="0" cy="5" r="4" fill="#3A1F4A"/>
    </g>
    <g transform="translate(220 235)">
      <circle cx="0" cy="0" r="3.5" fill="#3A1F4A"/>
      <circle cx="-4" cy="-3" r="3.5" fill="#4A2A5A"/>
      <circle cx="4" cy="-3" r="3.5" fill="#4A2A5A"/>
      <circle cx="-4" cy="3" r="3.5" fill="#3A1F4A"/>
      <circle cx="4" cy="3" r="3.5" fill="#3A1F4A"/>
    </g>
    <g transform="translate(115 235)">
      <circle cx="0" cy="0" r="3.5" fill="#3A1F4A"/>
      <circle cx="-4" cy="-3" r="3.5" fill="#4A2A5A"/>
      <circle cx="4" cy="-3" r="3.5" fill="#4A2A5A"/>
      <circle cx="-4" cy="3" r="3.5" fill="#3A1F4A"/>
      <circle cx="4" cy="3" r="3.5" fill="#3A1F4A"/>
    </g>
  </g>

  <!-- Frambuesa -->
  <g transform="translate(165 235)">
    <circle cx="0" cy="0" r="4" fill="#B5285A"/>
    <circle cx="-4" cy="-2" r="4" fill="#C8302E"/>
    <circle cx="4" cy="-2" r="4" fill="#C8302E"/>
    <circle cx="-3" cy="3" r="4" fill="#B5285A"/>
    <circle cx="3" cy="3" r="4" fill="#B5285A"/>
  </g>

  <ellipse cx="170" cy="245" rx="40" ry="8" fill="#fff" opacity="0.2"/>
</svg>
